<?xml version="1.0" encoding="UTF-8"?>
<svg id="zDark" xmlns="http://www.w3.org/2000/svg" viewBox="0 0 20 20">
  <defs>
    <style>
      .cls-1 {
        fill: #525252;
      }

      .cls-1, .cls-2 {
        fill-rule: evenodd;
      }

      .cls-2 {
        fill: #d4d4d4;
      }

      .cls-3 {
        fill: #2d2d2d;
      }
    </style>
  </defs>
  <path class="cls-1" d="M15,18H5c-.552,0-1-.448-1-1V3c0-.552.448-1,1-1h8l3,3v12c0,.552-.448,1-1,1Z"/>
  <path class="cls-2" d="M12,3h-7v14h10V6h-3v-3Z"/>
  <path class="cls-3" d="M7.354,7.751c0-1.649,1.387-2.443,2.632-2.443,1.822,0,2.673,1.432,2.673,2.758,0,1.819-1.636,1.629-1.636,3.049v.5h-1.99v-.5c0-1.778,1.999-1.773,1.999-3.1,0-1.345-2.013-1.366-2.013-.2l-1.666-.064ZM9.005,14.945h1.971v-1.889h-1.971v1.889Z"/>
</svg>