<?xml version="1.0" encoding="UTF-8"?>
<svg id="zDark" xmlns="http://www.w3.org/2000/svg" viewBox="0 0 18 18">
  <defs>
    <style>
      .cls-1 {
        opacity: .4;
      }

      .cls-1, .cls-2 {
        fill: #d4d4d4;
      }

      .cls-2 {
        fill-rule: evenodd;
      }
    </style>
  </defs>
  <g>
    <rect class="cls-1" x="2" y="6" width="15" height="1"/>
    <rect class="cls-1" x="2" y="4" width="15" height="1"/>
    <rect class="cls-1" x="2" y="11" width="7" height="1"/>
    <rect class="cls-1" x="2" y="13" width="7" height="1"/>
  </g>
  <g>
    <rect class="cls-1" x="12" y="2" width="1" height="6"/>
    <rect class="cls-1" x="14" y="2" width="1" height="6"/>
    <rect class="cls-1" x="6" y="2" width="1" height="14"/>
    <rect class="cls-1" x="4" y="2" width="1" height="14"/>
  </g>
  <path class="cls-2" d="M17,10v5c0,.552-.448,1-1,1h-5c-.552,0-1-.448-1-1v-5c0-.552.448-1,1-1h5c.552,0,1,.448,1,1ZM16.037,14.251l-1.768-1.731,1.764-1.764-.779-.705-1.754,1.717-1.754-1.717-.779.705,1.764,1.764-1.768,1.731.787.787,1.75-1.75,1.75,1.75.787-.787Z"/>
</svg>