<?xml version="1.0" encoding="UTF-8"?>
<svg id="zLight" xmlns="http://www.w3.org/2000/svg" viewBox="0 0 28 26">
  <defs>
    <style>
      .cls-1 {
        fill: #a7a7a7;
      }

      .cls-2 {
        fill: #d2d2d2;
      }

      .cls-3 {
        fill: #3a3a3a;
      }
    </style>
  </defs>
  <rect class="cls-1" x="1" y="1" width="24" height="24" rx="2" ry="2" transform="translate(26) rotate(90)"/>
  <rect class="cls-2" x="2" y="2" width="22" height="22" rx="1" ry="1" transform="translate(26) rotate(90)"/>
  <path class="cls-3" d="M22,11h-.75l-1.25,1.25-1.25-1.25h-.75v.75l.75.75h-2.772l-2.478-2.478v-2.772l.75.75h.75v-.75l-1.25-1.25,1.25-1.25v-.75h-.75l-1.25,1.25-1.25-1.25h-.75v.75l1.25,1.25-1.25,1.25v.75h.75l.75-.75v2.728l-2.522,2.522h-2.728l.75-.75v-.75h-.75l-1.25,1.25-1.25-1.25h-.75v.75l1.25,1.25-1.25,1.25v.75h.75l1.25-1.25,1.25,1.25h.75v-.75l-.75-.75h2.772l2.478,2.478v2.772l-.75-.75h-.75v.75l1.25,1.25-1.25,1.25v.75h.75l1.25-1.25,1.25,1.25h.75v-.75l-1.25-1.25,1.25-1.25v-.75h-.75l-.75.75v-2.728l2.522-2.522h2.728l-.75.75v.75h.75l1.25-1.25,1.25,1.25h.75v-.75l-1.25-1.25,1.25-1.25v-.75ZM13.02,14.5l-1.52-1.52,1.48-1.48,1.52,1.52-1.48,1.48Z"/>
</svg>